<svg version="1.1" xmlns="http://www.w3.org/2000/svg" viewBox="0 0 2080 1100" width="6240" height="3300">
  <!-- svg-source:excalidraw -->
  
  <defs>
    <style class="style-fonts">
      @font-face {
        font-family: "Virgil";
        src: url("https://excalidraw.com/Virgil.woff2");
      }
      @font-face {
        font-family: "Cascadia";
        src: url("https://excalidraw.com/Cascadia.woff2");
      }
    </style>
  </defs>
  <rect x="0" y="0" width="2080" height="1100" fill="#ffffff"></rect><g stroke-linecap="round" transform="translate(1350 490) rotate(0 160 50)"><path d="M25 0 M25 0 C110.09 -0.54, 195.52 0.37, 295 0 M25 0 C119.1 -1.08, 214.47 0.05, 295 0 M295 0 C313.34 0.56, 319.45 7.47, 320 25 M295 0 C311.3 -0.61, 321.65 10.35, 320 25 M320 25 C320.78 38.62, 318.31 52.63, 320 75 M320 25 C320.51 43.37, 320.29 64.29, 320 75 M320 75 C320.83 92.95, 313.53 98.38, 295 100 M320 75 C318.75 89.97, 313.15 101.71, 295 100 M295 100 C231.82 102.93, 170.05 102.78, 25 100 M295 100 C236.8 99.72, 180.72 99.29, 25 100 M25 100 C6.5 101.59, 0.6 91.37, 0 75 M25 100 C6.75 100.91, 0.08 92.63, 0 75 M0 75 C0.36 59.27, -1.16 45.52, 0 25 M0 75 C-0.28 57.4, -0.73 41.24, 0 25 M0 25 C-1.61 10.12, 9.8 -0.11, 25 0 M0 25 C-1.01 9.53, 8.37 0.2, 25 0" stroke="#000000" stroke-width="1" fill="none"></path></g><g transform="translate(1481.2583332061768 527.5) rotate(0 28.741666793823242 12.5)"><text x="28.741666793823242" y="0" font-family="Virgil, Segoe UI Emoji" font-size="20px" fill="#000000" text-anchor="middle" style="white-space: pre;" direction="ltr" dominant-baseline="text-before-edge">Engine</text></g><g stroke-linecap="round" transform="translate(1050 650) rotate(0 160 50)"><path d="M25 0 M25 0 C119.42 0.59, 215.8 0.63, 295 0 M25 0 C106.39 0.55, 186.12 -0.42, 295 0 M295 0 C309.82 1.33, 318.66 8.92, 320 25 M295 0 C310.48 2.03, 319.55 8.93, 320 25 M320 25 C320.68 40.24, 320.32 54.24, 320 75 M320 25 C320.49 34.51, 320.47 45.15, 320 75 M320 75 C319.59 91.61, 312.75 99.04, 295 100 M320 75 C318.23 93.48, 310.32 99.25, 295 100 M295 100 C236.87 97.09, 179.18 98.65, 25 100 M295 100 C190.78 99.47, 88.51 99.07, 25 100 M25 100 C8.14 99.53, 0.39 92.18, 0 75 M25 100 C8.97 99.7, -1.56 91.1, 0 75 M0 75 C0.24 63.75, 0.29 52.79, 0 25 M0 75 C-0.23 63.52, 0.6 50.24, 0 25 M0 25 C1.64 8.17, 7.21 0.26, 25 0 M0 25 C0.64 6.61, 7.13 -0.44, 25 0" stroke="#000000" stroke-width="1" fill="none"></path></g><g transform="translate(1183.158332824707 687.5) rotate(0 26.84166717529297 12.5)"><text x="26.84166717529297" y="0" font-family="Virgil, Segoe UI Emoji" font-size="20px" fill="#000000" text-anchor="middle" style="white-space: pre;" direction="ltr" dominant-baseline="text-before-edge">Lexer</text></g><g stroke-linecap="round" transform="translate(870 290) rotate(0 160 50)"><path d="M25 0 M25 0 C82.57 -1.77, 142.24 0.38, 295 0 M25 0 C104.95 -1.43, 183.7 -0.97, 295 0 M295 0 C313.59 1.81, 319.22 7.87, 320 25 M295 0 C309.63 -1.47, 319.84 6.45, 320 25 M320 25 C320.5 41.66, 321.13 56.61, 320 75 M320 25 C320.08 35.08, 320.38 44.43, 320 75 M320 75 C319.16 91.3, 312.92 98.84, 295 100 M320 75 C318.47 90.95, 313.5 100.83, 295 100 M295 100 C224.45 99.4, 155.15 96.61, 25 100 M295 100 C228.3 99.31, 160.83 98.78, 25 100 M25 100 C9.51 98.13, 0.92 89.73, 0 75 M25 100 C9.25 102.24, -1.27 89.43, 0 75 M0 75 C0.69 63.32, -0.68 53.37, 0 25 M0 75 C-0.14 55.41, -1.16 36.88, 0 25 M0 25 C-0.87 7.69, 6.38 0.6, 25 0 M0 25 C0.71 9.03, 10.12 -1.48, 25 0" stroke="#000000" stroke-width="1" fill="none"></path></g><g transform="translate(928.9749984741211 327.5) rotate(0 101.0250015258789 12.5)"><text x="101.0250015258789" y="0" font-family="Virgil, Segoe UI Emoji" font-size="20px" fill="#000000" text-anchor="middle" style="white-space: pre;" direction="ltr" dominant-baseline="text-before-edge">Wiki content provider</text></g><g stroke-linecap="round" transform="translate(870 150) rotate(0 160 50)"><path d="M25 0 M25 0 C115.02 0.53, 201.1 2.99, 295 0 M25 0 C109.03 -0.52, 193.51 0.07, 295 0 M295 0 C310.13 -1.75, 318.63 9.13, 320 25 M295 0 C312.76 -0.76, 321.54 7.49, 320 25 M320 25 C318.69 41.36, 318.76 56.21, 320 75 M320 25 C321.04 39.99, 320.67 55.84, 320 75 M320 75 C320.01 92.95, 310.8 99.37, 295 100 M320 75 C319.34 93.96, 312.42 98.26, 295 100 M295 100 C216.7 100.67, 138.43 100.17, 25 100 M295 100 C224.29 101.35, 153.21 101.7, 25 100 M25 100 C8.58 99.22, 1.79 91.28, 0 75 M25 100 C7.62 99.78, 1.11 93.71, 0 75 M0 75 C-1.17 61.67, -1.32 52.35, 0 25 M0 75 C0.74 60.7, 0.48 45.82, 0 25 M0 25 C1.48 10.29, 6.94 1.24, 25 0 M0 25 C-0.02 8.21, 8.35 -0.93, 25 0" stroke="#000000" stroke-width="1" fill="none"></path></g><g transform="translate(919.8333358764648 187.5) rotate(0 110.16666412353516 12.5)"><text x="110.16666412353516" y="0" font-family="Virgil, Segoe UI Emoji" font-size="20px" fill="#000000" text-anchor="middle" style="white-space: pre;" direction="ltr" dominant-baseline="text-before-edge">Local content provider</text></g><g stroke-linecap="round" transform="translate(1670 650) rotate(0 160 50)"><path d="M25 0 M25 0 C109.57 0.15, 196.58 1.88, 295 0 M25 0 C79.93 2.46, 133.72 1.86, 295 0 M295 0 C311.2 0.39, 320.51 8.89, 320 25 M295 0 C311.37 -1.56, 319.43 6.11, 320 25 M320 25 C319.3 38.02, 318.51 49.76, 320 75 M320 25 C320.83 42.28, 319.78 58.88, 320 75 M320 75 C319.83 90.55, 311.93 100.56, 295 100 M320 75 C318.28 90.47, 311.23 101.7, 295 100 M295 100 C204 100.35, 114.64 102, 25 100 M295 100 C208.05 101.68, 120.89 101.67, 25 100 M25 100 C6.69 99.93, -0.86 91.72, 0 75 M25 100 C7.72 101.27, 1.71 93.01, 0 75 M0 75 C1.8 59.94, 0.06 42.12, 0 25 M0 75 C0.01 62.99, 1.24 49.16, 0 25 M0 25 C-1.68 7.41, 9.82 -0.05, 25 0 M0 25 C-0.52 7.13, 8.41 1.75, 25 0" stroke="#000000" stroke-width="1" fill="none"></path></g><g transform="translate(1784.025001525879 687.5) rotate(0 45.974998474121094 12.5)"><text x="45.974998474121094" y="0" font-family="Virgil, Segoe UI Emoji" font-size="20px" fill="#000000" text-anchor="middle" style="white-space: pre;" direction="ltr" dominant-baseline="text-before-edge">Tokeniser</text></g><g stroke-linecap="round" transform="translate(1350 270) rotate(0 160 70)"><path d="M201.25 17.75 M201.25 17.75 C231.94 28.59, 257.68 41.71, 279.75 53.25 M201.25 17.75 C229.61 32.09, 258.21 44.86, 279.75 53.25 M279.75 53.25 C319.82 72.2, 318.26 71.3, 279.75 88.75 M279.75 53.25 C319.94 69.03, 319.33 73.25, 279.75 88.75 M279.75 88.75 C263.12 96.31, 244.21 104.61, 201.25 122.25 M279.75 88.75 C256.04 98.81, 232.44 108.77, 201.25 122.25 M201.25 122.25 C159.82 140.72, 161.72 140.19, 120.75 122.25 M201.25 122.25 C161.24 139.45, 159.19 138.43, 120.75 122.25 M120.75 122.25 C99.47 113.28, 74.11 104.86, 40.25 88.75 M120.75 122.25 C95.63 112.72, 71.65 102.14, 40.25 88.75 M40.25 88.75 C1.76 71.67, -0.6 69.3, 40.25 53.25 M40.25 88.75 C-0.87 69.16, -0.28 69.02, 40.25 53.25 M40.25 53.25 C68.19 41.59, 93.26 29.33, 120.75 17.75 M40.25 53.25 C63.3 43.92, 87.88 32.63, 120.75 17.75 M120.75 17.75 C162.12 1.14, 162.77 -0.33, 201.25 17.75 M120.75 17.75 C159.99 -1.92, 162.86 -2.14, 201.25 17.75" stroke="#000000" stroke-width="1" fill="none"></path></g><g transform="translate(1472.3916664123535 315) rotate(0 37.608333587646484 25)"><text x="37.608333587646484" y="0" font-family="Virgil, Segoe UI Emoji" font-size="20px" fill="#000000" text-anchor="middle" style="white-space: pre;" direction="ltr" dominant-baseline="text-before-edge">Engine</text><text x="37.608333587646484" y="25" font-family="Virgil, Segoe UI Emoji" font-size="20px" fill="#000000" text-anchor="middle" style="white-space: pre;" direction="ltr" dominant-baseline="text-before-edge">Factory</text></g><g stroke-linecap="round"><g transform="translate(1510 489) rotate(0 0.012609022131528036 -38.82306807897987)"><path d="M1.07 0.88 C1.09 -12.05, 0.01 -65.38, -0.06 -78.53 M0.18 0.3 C0.04 -12.39, -1.05 -64.44, -1.05 -77.27" stroke="#000000" stroke-width="1" fill="none"></path></g><g transform="translate(1510 489) rotate(0 0.012609022131528036 -38.82306807897987)"><path d="M11.02 -49.31 C5.87 -56.09, 3.74 -64.98, 0.05 -78.92 M10.43 -48.87 C6.09 -58.86, 2.7 -67.58, -1.17 -78.13" stroke="#000000" stroke-width="1" fill="none"></path></g><g transform="translate(1510 489) rotate(0 0.012609022131528036 -38.82306807897987)"><path d="M-9.5 -49.06 C-8.79 -56.1, -5.04 -65.06, 0.05 -78.92 M-10.09 -48.62 C-8.02 -58.62, -4.99 -67.42, -1.17 -78.13" stroke="#000000" stroke-width="1" fill="none"></path></g></g><mask></mask><g stroke-linecap="round"><g transform="translate(1789.8358366576094 649) rotate(0 -18.119157181498167 -51.62090091506025)"><path d="M0.57 1.04 C13.97 -15.44, 100.52 -83.77, 80.65 -99.01 C60.77 -114.25, -85.42 -91.73, -118.71 -90.4 M-0.59 0.53 C12.68 -15.72, 99.82 -82.49, 79.95 -97.47 C60.08 -112.45, -86.61 -90.5, -119.84 -89.34" stroke="#000000" stroke-width="1" fill="none"></path></g><g transform="translate(1789.8358366576094 649) rotate(0 -18.119157181498167 -51.62090091506025)"><path d="M-91.01 -101.4 C-101.36 -99.15, -110.77 -95.69, -121.73 -90.21 M-93.57 -102.66 C-102.56 -97.15, -114.2 -92.58, -119.8 -88.58" stroke="#000000" stroke-width="1" fill="none"></path></g><g transform="translate(1789.8358366576094 649) rotate(0 -18.119157181498167 -51.62090091506025)"><path d="M-89.08 -80.97 C-100.02 -85.19, -110.04 -88.21, -121.73 -90.21 M-91.65 -82.23 C-101.56 -84.76, -113.96 -88.24, -119.8 -88.58" stroke="#000000" stroke-width="1" fill="none"></path></g></g><mask></mask><g mask="url(#mask-ExNPXlfMDEZ5rz3xFcRKx)" stroke-linecap="round"><g transform="translate(1236.616619137194 641.5) rotate(0 39.632748260945505 -52.21377319256089)"><path d="M-0.78 -0.73 C-7.16 -17.32, -59.01 -82.61, -38.46 -98.88 C-17.91 -115.14, 95.56 -98.15, 122.51 -98.33 M1.01 1.5 C-4.98 -14.93, -56.32 -80.3, -36.19 -97.27 C-16.06 -114.24, 95.12 -99.97, 121.81 -100.32" stroke="#000000" stroke-width="1" fill="none"></path></g><g transform="translate(1236.616619137194 641.5) rotate(0 39.632748260945505 -52.21377319256089)"><path d="M91.86 -93.1 C101.41 -93.75, 110.48 -94.97, 120.18 -100.86 M93.96 -91.38 C100.11 -93.78, 105.99 -96.09, 121.82 -99.49" stroke="#000000" stroke-width="1" fill="none"></path></g><g transform="translate(1236.616619137194 641.5) rotate(0 39.632748260945505 -52.21377319256089)"><path d="M93.03 -113.58 C102.35 -108.42, 111.09 -103.81, 120.18 -100.86 M95.12 -111.87 C100.88 -109.37, 106.48 -106.78, 121.82 -99.49" stroke="#000000" stroke-width="1" fill="none"></path></g></g><mask id="mask-ExNPXlfMDEZ5rz3xFcRKx"><rect x="0" y="0" fill="#fff" width="1496.616619137194" height="840.5"></rect><rect x="1144.5416679382324" y="530" fill="#000" width="108.93333435058594" height="25" opacity="1"></rect></mask><g transform="translate(1144.5416679382324 530) rotate(0 131.70769945990708 59.28622680743911)"><text x="54.46666717529297" y="0" font-family="Virgil, Segoe UI Emoji" font-size="20px" fill="#000000" text-anchor="middle" style="white-space: pre;" direction="ltr" dominant-baseline="text-before-edge">Composition</text></g><g stroke-linecap="round" transform="translate(1350 770) rotate(0 160 95.5)"><path d="M203.03 2.58 C219.62 3.85, 236.14 11.54, 250.28 17.44 C264.42 23.34, 277.43 29.84, 287.86 37.99 C298.3 46.15, 307.57 56.48, 312.87 66.37 C318.17 76.26, 320.27 86.89, 319.68 97.32 C319.08 107.75, 315.32 119.09, 309.32 128.97 C303.31 138.84, 294.48 148.51, 283.67 156.57 C272.86 164.63, 259.23 172.07, 244.44 177.3 C229.65 182.53, 211.9 185.9, 194.95 187.96 C177.99 190.01, 159.7 190.75, 142.73 189.62 C125.76 188.5, 108.63 185.5, 93.11 181.22 C77.59 176.93, 62.22 171.04, 49.63 163.91 C37.04 156.78, 25.42 147.54, 17.57 138.44 C9.72 129.35, 5.09 119.41, 2.53 109.32 C-0.04 99.24, -0.93 88.05, 2.15 77.92 C5.23 67.79, 12.25 57.62, 21.03 48.55 C29.81 39.47, 41.73 30.4, 54.82 23.47 C67.9 16.54, 83.66 10.81, 99.53 6.98 C115.39 3.16, 131.2 0.93, 150.02 0.52 C168.85 0.11, 200.91 3.01, 212.48 4.52 C224.05 6.03, 220.33 7.9, 219.45 9.6 M223.77 8.91 C239.79 11.47, 255.48 17.55, 268.3 24.31 C281.12 31.07, 292.46 40.47, 300.69 49.48 C308.91 58.48, 314.93 68.2, 317.66 78.35 C320.4 88.5, 319.99 100.02, 317.09 110.38 C314.19 120.74, 308.19 131.29, 300.25 140.51 C292.3 149.73, 282.16 158.47, 269.45 165.7 C256.73 172.92, 240.16 179.59, 223.96 183.88 C207.76 188.18, 189.31 190.76, 172.23 191.45 C155.15 192.15, 138.23 190.49, 121.47 188.05 C104.71 185.62, 86.06 182.5, 71.67 176.84 C57.27 171.18, 45.48 162.36, 35.09 154.08 C24.69 145.8, 15.18 137.01, 9.31 127.16 C3.44 117.3, -0.01 105.19, -0.13 94.93 C-0.24 84.67, 3.15 75.27, 8.61 65.6 C14.07 55.94, 22.23 45.03, 32.64 36.94 C43.06 28.86, 56.28 22.94, 71.09 17.1 C85.89 11.26, 104.68 4.46, 121.46 1.9 C138.24 -0.65, 154.65 0.88, 171.76 1.75 C188.86 2.62, 215.47 5.87, 224.1 7.12 C232.74 8.36, 224.76 7.8, 223.59 9.22" stroke="#000000" stroke-width="1" fill="none"></path></g><g transform="translate(1410.3295821854454 827.9713023966847) rotate(0 99.53333282470703 37.5)"><text x="99.53333282470703" y="0" font-family="Virgil, Segoe UI Emoji" font-size="20px" fill="#000000" text-anchor="middle" style="white-space: pre;" direction="ltr" dominant-baseline="text-before-edge">Content Providers | </text><text x="99.53333282470703" y="25" font-family="Virgil, Segoe UI Emoji" font-size="20px" fill="#000000" text-anchor="middle" style="white-space: pre;" direction="ltr" dominant-baseline="text-before-edge">Cachable </text><text x="99.53333282470703" y="50" font-family="Virgil, Segoe UI Emoji" font-size="20px" fill="#000000" text-anchor="middle" style="white-space: pre;" direction="ltr" dominant-baseline="text-before-edge">ContentProvider</text></g><g stroke-linecap="round" transform="translate(390 170) rotate(0 140 60)"><path d="M184.68 2.23 C200.62 3.56, 217.83 10.16, 230.83 14.94 C243.83 19.73, 254.79 24.82, 262.7 30.94 C270.62 37.07, 275.92 44.41, 278.32 51.68 C280.71 58.95, 280.88 67.43, 277.07 74.58 C273.25 81.73, 265.06 88.57, 255.43 94.56 C245.81 100.55, 233.38 106.48, 219.33 110.5 C205.28 114.53, 187.79 117.25, 171.14 118.73 C154.49 120.2, 136.04 120.54, 119.45 119.35 C102.85 118.15, 86.3 115.16, 71.57 111.56 C56.84 107.96, 41.96 103.26, 31.06 97.73 C20.17 92.19, 11.43 84.98, 6.2 78.34 C0.97 71.7, -1.21 65.02, -0.32 57.89 C0.58 50.75, 4.6 42.37, 11.59 35.54 C18.58 28.72, 29.44 22.06, 41.65 16.92 C53.86 11.78, 69.4 7.45, 84.88 4.71 C100.35 1.98, 117.46 0.62, 134.5 0.53 C151.54 0.43, 177.98 3.47, 187.1 4.12 C196.22 4.78, 189.78 3.58, 189.22 4.47 M124.42 1.55 C140.05 0.21, 160.8 1.18, 177.07 3.01 C193.35 4.83, 208.76 8.6, 222.07 12.5 C235.38 16.4, 247.8 20.51, 256.94 26.39 C266.08 32.27, 273.28 40.36, 276.93 47.78 C280.58 55.2, 281.66 63.69, 278.84 70.92 C276.02 78.15, 268.57 85.06, 260.01 91.16 C251.44 97.26, 240.58 103.11, 227.44 107.51 C214.3 111.91, 197.61 115.5, 181.15 117.59 C164.7 119.67, 145.56 120.41, 128.68 120.04 C111.8 119.67, 95.14 118.36, 79.88 115.35 C64.62 112.34, 48.59 107.39, 37.13 101.97 C25.67 96.56, 17.44 89.63, 11.11 82.85 C4.77 76.06, -0.25 68.72, -0.9 61.27 C-1.54 53.82, 1.19 45.07, 7.22 38.15 C13.25 31.24, 23.88 25.14, 35.29 19.77 C46.7 14.4, 60.58 9.1, 75.68 5.94 C90.79 2.77, 117.69 1.67, 125.93 0.78 C134.17 -0.1, 125.15 -0.12, 125.11 0.62" stroke="#000000" stroke-width="1" fill="none"></path></g><g transform="translate(457.3633804068327 217.57359312880715) rotate(0 72.64167022705078 12.5)"><text x="72.64167022705078" y="0" font-family="Virgil, Segoe UI Emoji" font-size="20px" fill="#000000" text-anchor="middle" style="white-space: pre;" direction="ltr" dominant-baseline="text-before-edge">Cache manager</text></g><g mask="url(#mask-FpEfe2IY2CDgkA-kWiiyE)" stroke-linecap="round"><g transform="translate(1510 770) rotate(0 0.19089499781830455 -89.67536579109728)"><path d="M0.43 0.92 C0.81 -29.11, 1.19 -150.01, 1.19 -180.27 M-0.81 0.35 C-0.38 -29.48, 0.75 -148.87, 0.87 -178.87" stroke="#000000" stroke-width="1" fill="none"></path></g><g transform="translate(1510 770) rotate(0 0.19089499781830455 -89.67536579109728)"><path d="M12.45 -148.62 C8.44 -155.63, 5.77 -162.65, 0.25 -177.45 M11.12 -150.22 C8.95 -158.74, 6.41 -165.56, 1.47 -179.72" stroke="#000000" stroke-width="1" fill="none"></path></g><g transform="translate(1510 770) rotate(0 0.19089499781830455 -89.67536579109728)"><path d="M-8.07 -148.77 C-7.87 -155.82, -6.32 -162.81, 0.25 -177.45 M-9.4 -150.36 C-6.11 -158.66, -3.18 -165.45, 1.47 -179.72" stroke="#000000" stroke-width="1" fill="none"></path></g></g><mask id="mask-FpEfe2IY2CDgkA-kWiiyE"><rect x="0" y="0" fill="#fff" width="1610" height="1050"></rect><rect x="1462.4583320617676" y="667.5" fill="#000" width="95.08333587646484" height="25" opacity="1"></rect></mask><g transform="translate(1462.4583320617676 667.5) rotate(0 47.732562936050726 12.824634208902722)"><text x="47.54166793823242" y="0" font-family="Virgil, Segoe UI Emoji" font-size="20px" fill="#000000" text-anchor="middle" style="white-space: pre;" direction="ltr" dominant-baseline="text-before-edge">Interface</text></g><g mask="url(#mask-INdfd-xktQ6ZrmLafa8VW)" stroke-linecap="round"><g transform="translate(1191 350) rotate(0 79.47162727301941 -0.2780817577801713)"><path d="M-0.95 0.12 C25.5 0.31, 131.04 0.5, 157.81 0.62 M0.75 -0.87 C27.63 -0.97, 133.49 -1.15, 159.9 -1.18" stroke="#000000" stroke-width="1" fill="none"></path></g><g transform="translate(1191 350) rotate(0 79.47162727301941 -0.2780817577801713)"><path d="M131.92 7.14 C139.1 8.11, 145.78 3.15, 160.18 -3.06 M130.88 8.46 C141.2 6.47, 150.05 3.47, 160.83 -0.55" stroke="#000000" stroke-width="1" fill="none"></path></g><g transform="translate(1191 350) rotate(0 79.47162727301941 -0.2780817577801713)"><path d="M131.89 -13.38 C138.98 -7.82, 145.67 -8.2, 160.18 -3.06 M130.85 -12.07 C141.35 -7.41, 150.21 -3.77, 160.83 -0.55" stroke="#000000" stroke-width="1" fill="none"></path></g></g><mask id="mask-INdfd-xktQ6ZrmLafa8VW"><rect x="0" y="0" fill="#fff" width="1450" height="450"></rect><rect x="1222.9583320617676" y="337.5" fill="#000" width="95.08333587646484" height="25" opacity="1"></rect></mask><g transform="translate(1222.9583320617676 337.5) rotate(0 47.51329521125183 12.221918242219829)"><text x="47.54166793823242" y="0" font-family="Virgil, Segoe UI Emoji" font-size="20px" fill="#000000" text-anchor="middle" style="white-space: pre;" direction="ltr" dominant-baseline="text-before-edge">Interface</text></g><g mask="url(#mask-CRYl03EuGcWFlfQI5ajR9)" stroke-linecap="round"><g transform="translate(1190 210) rotate(0 80.40129224996087 60.32611389373426)"><path d="M-0.26 0.46 C26.22 20.53, 132.18 101.15, 158.92 121 M1.81 -0.34 C28.64 19.35, 134.78 99.24, 161.06 119.4" stroke="#000000" stroke-width="1" fill="none"></path></g><g transform="translate(1190 210) rotate(0 80.40129224996087 60.32611389373426)"><path d="M133.16 108.73 C142.81 113.54, 149.08 117.77, 160.67 118.78 M131.71 110.87 C140.48 112.35, 148.2 114.85, 161.3 119.41" stroke="#000000" stroke-width="1" fill="none"></path></g><g transform="translate(1190 210) rotate(0 80.40129224996087 60.32611389373426)"><path d="M145.56 92.38 C151.52 102.13, 154.02 111.33, 160.67 118.78 M144.11 94.52 C149.36 100.86, 153.48 108.1, 161.3 119.41" stroke="#000000" stroke-width="1" fill="none"></path></g></g><mask id="mask-CRYl03EuGcWFlfQI5ajR9"><rect x="0" y="0" fill="#fff" width="1450" height="430"></rect><rect x="1222.4583320617676" y="257.5" fill="#000" width="95.08333587646484" height="25" opacity="1"></rect></mask><g transform="translate(1222.4583320617676 257.5) rotate(0 47.9429601881933 12.82611389373426)"><text x="47.54166793823242" y="0" font-family="Virgil, Segoe UI Emoji" font-size="20px" fill="#000000" text-anchor="middle" style="white-space: pre;" direction="ltr" dominant-baseline="text-before-edge">Interface</text></g><g stroke-linecap="round" transform="translate(370 10) rotate(0 170 60)"><path d="M213.75 15.25 M213.75 15.25 C241.52 24.49, 274.19 37.66, 297.25 45.75 M213.75 15.25 C243.65 24.91, 270.87 34.81, 297.25 45.75 M297.25 45.75 C338.16 62.85, 339.91 60.45, 297.25 76.25 M297.25 45.75 C338.11 60.85, 338.74 61.52, 297.25 76.25 M297.25 76.25 C266.03 87.99, 234.15 99.15, 213.75 104.75 M297.25 76.25 C274.96 82.98, 254.09 91.83, 213.75 104.75 M213.75 104.75 C172.86 119.13, 169.07 121.77, 128.25 104.75 M213.75 104.75 C173.12 120.18, 170.76 119.01, 128.25 104.75 M128.25 104.75 C105.61 98.42, 83.52 91.6, 42.75 76.25 M128.25 104.75 C104.79 96.76, 80.75 87.89, 42.75 76.25 M42.75 76.25 C-0.78 59.3, -0.91 60, 42.75 45.75 M42.75 76.25 C2.16 59.61, 0.09 61.41, 42.75 45.75 M42.75 45.75 C64.85 39.18, 84.07 31.44, 128.25 15.25 M42.75 45.75 C62.66 38.16, 82.77 30.77, 128.25 15.25 M128.25 15.25 C170.28 1.61, 172.09 1.28, 213.75 15.25 M128.25 15.25 C170.11 1.42, 169.54 -1.91, 213.75 15.25" stroke="#000000" stroke-width="1" fill="none"></path></g><g transform="translate(482.43333435058594 57.5) rotate(0 57.56666564941406 12.5)"><text x="57.56666564941406" y="0" font-family="Virgil, Segoe UI Emoji" font-size="20px" fill="#000000" text-anchor="middle" style="white-space: pre;" direction="ltr" dominant-baseline="text-before-edge">File parsers</text></g><g mask="url(#mask-CurL2GNlH--wZzoqMmhyM)" stroke-linecap="round"><g transform="translate(710 70) rotate(0 90.79653699136577 39.79015053013342)"><path d="M-0.64 -0.89 C29.75 12.39, 151.86 65.53, 182.23 78.96 M1.22 1.26 C31.48 14.8, 151.45 67.74, 181.33 80.47" stroke="#000000" stroke-width="1" fill="none"></path></g><g transform="translate(710 70) rotate(0 90.79653699136577 39.79015053013342)"><path d="M149.9 78.77 C159.98 78.36, 169.84 79.46, 180.27 78.86 M150.73 78.66 C161.1 79.79, 169.33 78.72, 180.92 80.98" stroke="#000000" stroke-width="1" fill="none"></path></g><g transform="translate(710 70) rotate(0 90.79653699136577 39.79015053013342)"><path d="M158.09 59.96 C165.68 64.95, 173.17 71.51, 180.27 78.86 M158.92 59.84 C166.74 66.57, 172.56 71.05, 180.92 80.98" stroke="#000000" stroke-width="1" fill="none"></path></g></g><mask id="mask-CurL2GNlH--wZzoqMmhyM"><rect x="0" y="0" fill="#fff" width="992.1498002663116" height="249"></rect><rect x="742.8499016590349" y="97" fill="#000" width="116.44999694824219" height="25" opacity="1"></rect></mask><g transform="translate(742.8499016590347 97) rotate(0 57.946635332331084 12.790150530133417)"><text x="58.224998474121094" y="0" font-family="Virgil, Segoe UI Emoji" font-size="20px" fill="#000000" text-anchor="middle" style="white-space: pre;" direction="ltr" dominant-baseline="text-before-edge">Constructor</text></g><g mask="url(#mask-YUyLJb5AgZqAfOQfw2Fsl)" stroke-linecap="round"><g transform="translate(670.8494331862778 250.75931550926646) rotate(0 103.11752564333517 -29.874325161199693)"><path d="M-0.85 1.01 C33.63 -9.2, 172.43 -50.57, 207.08 -60.76 M0.91 0.5 C35.3 -9.6, 172.35 -49.62, 206.67 -59.48" stroke="#000000" stroke-width="1" fill="none"></path></g><g transform="translate(670.8494331862778 250.75931550926646) rotate(0 103.11752564333517 -29.874325161199693)"><path d="M184.14 -40.07 C189.22 -45.56, 197.98 -51.8, 208.36 -57.71 M182.16 -42.39 C187.62 -45.45, 191.96 -49.26, 207.4 -60.3" stroke="#000000" stroke-width="1" fill="none"></path></g><g transform="translate(670.8494331862778 250.75931550926646) rotate(0 103.11752564333517 -29.874325161199693)"><path d="M178.42 -59.78 C185.39 -58.99, 195.97 -58.99, 208.36 -57.71 M176.44 -62.1 C183.06 -61.2, 188.55 -61.04, 207.4 -60.3" stroke="#000000" stroke-width="1" fill="none"></path></g></g><mask id="mask-YUyLJb5AgZqAfOQfw2Fsl"><rect x="0" y="0" fill="#fff" width="976.9146823965787" height="411.0239942649589"></rect><rect x="726.3403898531958" y="208.12697613142018" fill="#000" width="95.08333587646484" height="25" opacity="1"></rect></mask><g transform="translate(726.3403898531958 208.12697613142018) rotate(0 47.62656897641716 12.758014216646586)"><text x="47.54166793823242" y="0" font-family="Virgil, Segoe UI Emoji" font-size="20px" fill="#000000" text-anchor="middle" style="white-space: pre;" direction="ltr" dominant-baseline="text-before-edge">Interface</text></g><g stroke-linecap="round" transform="translate(10 170) rotate(0 160 50)"><path d="M25 0 M25 0 C82.57 -1.77, 142.24 0.38, 295 0 M25 0 C104.95 -1.43, 183.7 -0.97, 295 0 M295 0 C313.59 1.81, 319.22 7.87, 320 25 M295 0 C309.63 -1.47, 319.84 6.45, 320 25 M320 25 C320.5 41.66, 321.13 56.61, 320 75 M320 25 C320.08 35.08, 320.38 44.43, 320 75 M320 75 C319.16 91.3, 312.92 98.84, 295 100 M320 75 C318.47 90.95, 313.5 100.83, 295 100 M295 100 C224.45 99.4, 155.15 96.61, 25 100 M295 100 C228.3 99.31, 160.83 98.78, 25 100 M25 100 C9.51 98.13, 0.92 89.73, 0 75 M25 100 C9.25 102.24, -1.27 89.43, 0 75 M0 75 C0.69 63.32, -0.68 53.37, 0 25 M0 75 C-0.14 55.41, -1.16 36.88, 0 25 M0 25 C-0.87 7.69, 6.38 0.6, 25 0 M0 25 C0.71 9.03, 10.12 -1.48, 25 0" stroke="#000000" stroke-width="1" fill="none"></path></g><g transform="translate(107.16666793823242 207.5) rotate(0 62.83333206176758 12.5)"><text x="62.83333206176758" y="0" font-family="Virgil, Segoe UI Emoji" font-size="20px" fill="#000000" text-anchor="middle" style="white-space: pre;" direction="ltr" dominant-baseline="text-before-edge">Paths Cache</text></g><g stroke-linecap="round"><g transform="translate(331 230) rotate(0 29.40470429232346 -0.6605320754611057)"><path d="M0.79 -0.38 C10.75 -0.15, 49.37 0.15, 59.06 0.34 M-0.25 -1.62 C9.7 -1.68, 48.85 -1.68, 58.67 -1.6" stroke="#000000" stroke-width="1" fill="none"></path></g><g transform="translate(331 230) rotate(0 29.40470429232346 -0.6605320754611057)"><path d="M30.75 9.99 C38.72 7.16, 46.14 3.51, 60.44 -1.33 M31.76 8.44 C42.07 5.19, 53.13 0.62, 58.3 -0.63" stroke="#000000" stroke-width="1" fill="none"></path></g><g transform="translate(331 230) rotate(0 29.40470429232346 -0.6605320754611057)"><path d="M30.82 -9.85 C38.6 -7.81, 46.01 -6.6, 60.44 -1.33 M31.82 -11.39 C42.15 -6.93, 53.19 -3.78, 58.3 -0.63" stroke="#000000" stroke-width="1" fill="none"></path></g></g><mask></mask><g stroke-linecap="round" transform="translate(630 650) rotate(0 140 60)"><path d="M184.68 2.23 C200.62 3.56, 217.83 10.16, 230.83 14.94 C243.83 19.73, 254.79 24.82, 262.7 30.94 C270.62 37.07, 275.92 44.41, 278.32 51.68 C280.71 58.95, 280.88 67.43, 277.07 74.58 C273.25 81.73, 265.06 88.57, 255.43 94.56 C245.81 100.55, 233.38 106.48, 219.33 110.5 C205.28 114.53, 187.79 117.25, 171.14 118.73 C154.49 120.2, 136.04 120.54, 119.45 119.35 C102.85 118.15, 86.3 115.16, 71.57 111.56 C56.84 107.96, 41.96 103.26, 31.06 97.73 C20.17 92.19, 11.43 84.98, 6.2 78.34 C0.97 71.7, -1.21 65.02, -0.32 57.89 C0.58 50.75, 4.6 42.37, 11.59 35.54 C18.58 28.72, 29.44 22.06, 41.65 16.92 C53.86 11.78, 69.4 7.45, 84.88 4.71 C100.35 1.98, 117.46 0.62, 134.5 0.53 C151.54 0.43, 177.98 3.47, 187.1 4.12 C196.22 4.78, 189.78 3.58, 189.22 4.47 M124.42 1.55 C140.05 0.21, 160.8 1.18, 177.07 3.01 C193.35 4.83, 208.76 8.6, 222.07 12.5 C235.38 16.4, 247.8 20.51, 256.94 26.39 C266.08 32.27, 273.28 40.36, 276.93 47.78 C280.58 55.2, 281.66 63.69, 278.84 70.92 C276.02 78.15, 268.57 85.06, 260.01 91.16 C251.44 97.26, 240.58 103.11, 227.44 107.51 C214.3 111.91, 197.61 115.5, 181.15 117.59 C164.7 119.67, 145.56 120.41, 128.68 120.04 C111.8 119.67, 95.14 118.36, 79.88 115.35 C64.62 112.34, 48.59 107.39, 37.13 101.97 C25.67 96.56, 17.44 89.63, 11.11 82.85 C4.77 76.06, -0.25 68.72, -0.9 61.27 C-1.54 53.82, 1.19 45.07, 7.22 38.15 C13.25 31.24, 23.88 25.14, 35.29 19.77 C46.7 14.4, 60.58 9.1, 75.68 5.94 C90.79 2.77, 117.69 1.67, 125.93 0.78 C134.17 -0.1, 125.15 -0.12, 125.11 0.62" stroke="#000000" stroke-width="1" fill="none"></path></g><g transform="translate(697.3633804068327 697.5735931288071) rotate(0 72.64167022705078 12.5)"><text x="72.64167022705078" y="0" font-family="Virgil, Segoe UI Emoji" font-size="20px" fill="#000000" text-anchor="middle" style="white-space: pre;" direction="ltr" dominant-baseline="text-before-edge">Cache manager</text></g><g stroke-linecap="round" transform="translate(230 650) rotate(0 160 50)"><path d="M25 0 M25 0 C82.57 -1.77, 142.24 0.38, 295 0 M25 0 C104.95 -1.43, 183.7 -0.97, 295 0 M295 0 C313.59 1.81, 319.22 7.87, 320 25 M295 0 C309.63 -1.47, 319.84 6.45, 320 25 M320 25 C320.5 41.66, 321.13 56.61, 320 75 M320 25 C320.08 35.08, 320.38 44.43, 320 75 M320 75 C319.16 91.3, 312.92 98.84, 295 100 M320 75 C318.47 90.95, 313.5 100.83, 295 100 M295 100 C224.45 99.4, 155.15 96.61, 25 100 M295 100 C228.3 99.31, 160.83 98.78, 25 100 M25 100 C9.51 98.13, 0.92 89.73, 0 75 M25 100 C9.25 102.24, -1.27 89.43, 0 75 M0 75 C0.69 63.32, -0.68 53.37, 0 25 M0 75 C-0.14 55.41, -1.16 36.88, 0 25 M0 25 C-0.87 7.69, 6.38 0.6, 25 0 M0 25 C0.71 9.03, 10.12 -1.48, 25 0" stroke="#000000" stroke-width="1" fill="none"></path></g><g transform="translate(329.625 687.5) rotate(0 60.375 12.5)"><text x="60.375" y="0" font-family="Virgil, Segoe UI Emoji" font-size="20px" fill="#000000" text-anchor="middle" style="white-space: pre;" direction="ltr" dominant-baseline="text-before-edge">Lexer Cache</text></g><g mask="url(#mask-KjCCY3ytUNwkyOh-UhDjj)" stroke-linecap="round"><g transform="translate(911.4791717414744 711.8191350348867) rotate(0 68.36301020826215 -0.11747759165319849)"><path d="M-0.01 -0.51 C22.83 -0.64, 115.35 -0.15, 138.21 0.03 M-1.48 -1.82 C21.13 -1.82, 113.86 1.53, 137.36 1.58" stroke="#000000" stroke-width="1" fill="none"></path></g><g transform="translate(911.4791717414744 711.8191350348867) rotate(0 68.36301020826215 -0.11747759165319849)"><path d="M108.12 11.59 C120.13 6, 132.16 4.99, 138.1 3.03 M109.58 11.51 C116.72 9.15, 122.88 7.28, 137.1 1.31" stroke="#000000" stroke-width="1" fill="none"></path></g><g transform="translate(911.4791717414744 711.8191350348867) rotate(0 68.36301020826215 -0.11747759165319849)"><path d="M108.55 -8.92 C120.53 -6.45, 132.4 0.62, 138.1 3.03 M110.01 -9.01 C116.88 -6.38, 122.93 -3.25, 137.1 1.31" stroke="#000000" stroke-width="1" fill="none"></path></g></g><mask id="mask-KjCCY3ytUNwkyOh-UhDjj"><rect x="0" y="0" fill="#fff" width="1149.4791717414744" height="811.8191350348867"></rect><rect x="932.937503803242" y="699.3191350348867" fill="#000" width="95.08333587646484" height="25" opacity="1"></rect></mask><g transform="translate(932.937503803242 699.3191350348867) rotate(0 46.904678146494575 12.382522408346802)"><text x="47.54166793823242" y="0" font-family="Virgil, Segoe UI Emoji" font-size="20px" fill="#000000" text-anchor="middle" style="white-space: pre;" direction="ltr" dominant-baseline="text-before-edge">Interface</text></g><g stroke-linecap="round"><g transform="translate(550 710) rotate(0 40.32287502624092 0.09267345895059975)"><path d="M-0.27 -0.96 C13.27 -0.78, 67.62 0.49, 80.91 0.76 M1.79 1.15 C15.28 1.02, 67.67 -0.55, 80.45 -0.96" stroke="#000000" stroke-width="1" fill="none"></path></g><g transform="translate(550 710) rotate(0 40.32287502624092 0.09267345895059975)"><path d="M50.98 11.68 C61.52 6.34, 69.03 3.65, 81.59 0.81 M52.52 10.08 C61.64 6.18, 71.74 2.76, 80.92 -0.54" stroke="#000000" stroke-width="1" fill="none"></path></g><g transform="translate(550 710) rotate(0 40.32287502624092 0.09267345895059975)"><path d="M50.35 -8.83 C61.01 -8.56, 68.69 -5.62, 81.59 0.81 M51.9 -10.43 C61.43 -7.54, 71.73 -4.16, 80.92 -0.54" stroke="#000000" stroke-width="1" fill="none"></path></g></g><mask></mask><g stroke-linecap="round" transform="translate(610 830) rotate(0 160 50)"><path d="M25 0 M25 0 C109.57 0.15, 196.58 1.88, 295 0 M25 0 C79.93 2.46, 133.72 1.86, 295 0 M295 0 C311.2 0.39, 320.51 8.89, 320 25 M295 0 C311.37 -1.56, 319.43 6.11, 320 25 M320 25 C319.3 38.02, 318.51 49.76, 320 75 M320 25 C320.83 42.28, 319.78 58.88, 320 75 M320 75 C319.83 90.55, 311.93 100.56, 295 100 M320 75 C318.28 90.47, 311.23 101.7, 295 100 M295 100 C204 100.35, 114.64 102, 25 100 M295 100 C208.05 101.68, 120.89 101.67, 25 100 M25 100 C6.69 99.93, -0.86 91.72, 0 75 M25 100 C7.72 101.27, 1.71 93.01, 0 75 M0 75 C1.8 59.94, 0.06 42.12, 0 25 M0 75 C0.01 62.99, 1.24 49.16, 0 25 M0 25 C-1.68 7.41, 9.82 -0.05, 25 0 M0 25 C-0.52 7.13, 8.41 1.75, 25 0" stroke="#000000" stroke-width="1" fill="none"></path></g><g transform="translate(724.0250015258789 867.5) rotate(0 45.974998474121094 12.5)"><text x="45.974998474121094" y="0" font-family="Virgil, Segoe UI Emoji" font-size="20px" fill="#000000" text-anchor="middle" style="white-space: pre;" direction="ltr" dominant-baseline="text-before-edge">Tokeniser</text></g><g stroke-linecap="round"><g transform="translate(931 873.1037038202833) rotate(0 134.95515558662225 -61.26216086983066)"><path d="M0.57 1.14 C45.57 -19.33, 225.4 -101.13, 270.5 -121.73 M-0.59 0.69 C44.23 -19.63, 224.45 -103.32, 269.7 -123.66" stroke="#000000" stroke-width="1" fill="none"></path></g><g transform="translate(931 873.1037038202833) rotate(0 134.95515558662225 -61.26216086983066)"><path d="M250.23 -102.14 C256.03 -108.28, 262.05 -118.1, 268.14 -124.03 M249.25 -103.18 C253.24 -107.55, 261.1 -114.08, 269.45 -122.96" stroke="#000000" stroke-width="1" fill="none"></path></g><g transform="translate(931 873.1037038202833) rotate(0 134.95515558662225 -61.26216086983066)"><path d="M241.69 -120.8 C250.56 -120.64, 259.48 -124.12, 268.14 -124.03 M240.71 -121.83 C247.27 -120.9, 257.53 -122.16, 269.45 -122.96" stroke="#000000" stroke-width="1" fill="none"></path></g></g><mask></mask><g stroke-linecap="round" transform="translate(610 990) rotate(0 160 50)"><path d="M25 0 M25 0 C109.57 0.15, 196.58 1.88, 295 0 M25 0 C79.93 2.46, 133.72 1.86, 295 0 M295 0 C311.2 0.39, 320.51 8.89, 320 25 M295 0 C311.37 -1.56, 319.43 6.11, 320 25 M320 25 C319.3 38.02, 318.51 49.76, 320 75 M320 25 C320.83 42.28, 319.78 58.88, 320 75 M320 75 C319.83 90.55, 311.93 100.56, 295 100 M320 75 C318.28 90.47, 311.23 101.7, 295 100 M295 100 C204 100.35, 114.64 102, 25 100 M295 100 C208.05 101.68, 120.89 101.67, 25 100 M25 100 C6.69 99.93, -0.86 91.72, 0 75 M25 100 C7.72 101.27, 1.71 93.01, 0 75 M0 75 C1.8 59.94, 0.06 42.12, 0 25 M0 75 C0.01 62.99, 1.24 49.16, 0 25 M0 25 C-1.68 7.41, 9.82 -0.05, 25 0 M0 25 C-0.52 7.13, 8.41 1.75, 25 0" stroke="#000000" stroke-width="1" fill="none"></path></g><g transform="translate(728.2666664123535 1027.5) rotate(0 41.733333587646484 12.5)"><text x="41.733333587646484" y="0" font-family="Virgil, Segoe UI Emoji" font-size="20px" fill="#000000" text-anchor="middle" style="white-space: pre;" direction="ltr" dominant-baseline="text-before-edge">Stemming</text></g><g stroke-linecap="round"><g transform="translate(930 1050) rotate(0 130.71258472455668 -149.50276092572136)"><path d="M0.92 -0.53 C44.3 -50.33, 216.1 -249.31, 259.19 -299.14 M-0.05 1.81 C43.8 -48.3, 218.4 -250.25, 261.48 -300.81" stroke="#000000" stroke-width="1" fill="none"></path></g><g transform="translate(930 1050) rotate(0 130.71258472455668 -149.50276092572136)"><path d="M250 -274.1 C254.63 -279.67, 256.25 -283.67, 260.85 -300.77 M251.53 -271.9 C254.17 -279.18, 256.6 -287.14, 261.54 -300.67" stroke="#000000" stroke-width="1" fill="none"></path></g><g transform="translate(930 1050) rotate(0 130.71258472455668 -149.50276092572136)"><path d="M234.44 -287.47 C242.33 -290.33, 247.25 -291.49, 260.85 -300.77 M235.96 -285.28 C242.65 -289.11, 249.13 -293.59, 261.54 -300.67" stroke="#000000" stroke-width="1" fill="none"></path></g></g><mask></mask><g stroke-linecap="round"><g transform="translate(1650.4790957630798 330.4081205036491) rotate(0 129.51038437902935 -39.85391031669451)"><path d="M0.64 -0.99 C43.78 -14.34, 216.55 -67.41, 259.5 -80.82 M-0.48 1.11 C42.44 -12.01, 215.03 -65.87, 258.54 -79.49" stroke="#000000" stroke-width="1" fill="none"></path></g><g transform="translate(1650.4790957630798 330.4081205036491) rotate(0 129.51038437902935 -39.85391031669451)"><path d="M233.05 -61.33 C242.6 -69.86, 250.07 -74.31, 260.13 -77.93 M233.73 -62.1 C244.64 -68.71, 253.06 -76.29, 259.1 -80.42" stroke="#000000" stroke-width="1" fill="none"></path></g><g transform="translate(1650.4790957630798 330.4081205036491) rotate(0 129.51038437902935 -39.85391031669451)"><path d="M226.93 -80.92 C238.53 -82.52, 248.18 -80.01, 260.13 -77.93 M227.61 -81.69 C241 -80.71, 251.79 -80.69, 259.1 -80.42" stroke="#000000" stroke-width="1" fill="none"></path></g></g><mask></mask><g stroke-linecap="round" transform="translate(1350 10) rotate(0 160 50)"><path d="M25 0 M25 0 C110.09 -0.54, 195.52 0.37, 295 0 M25 0 C119.1 -1.08, 214.47 0.05, 295 0 M295 0 C313.34 0.56, 319.45 7.47, 320 25 M295 0 C311.3 -0.61, 321.65 10.35, 320 25 M320 25 C320.78 38.62, 318.31 52.63, 320 75 M320 25 C320.51 43.37, 320.29 64.29, 320 75 M320 75 C320.83 92.95, 313.53 98.38, 295 100 M320 75 C318.75 89.97, 313.15 101.71, 295 100 M295 100 C231.82 102.93, 170.05 102.78, 25 100 M295 100 C236.8 99.72, 180.72 99.29, 25 100 M25 100 C6.5 101.59, 0.6 91.37, 0 75 M25 100 C6.75 100.91, 0.08 92.63, 0 75 M0 75 C0.36 59.27, -1.16 45.52, 0 25 M0 75 C-0.28 57.4, -0.73 41.24, 0 25 M0 25 C-1.61 10.12, 9.8 -0.11, 25 0 M0 25 C-1.01 9.53, 8.37 0.2, 25 0" stroke="#000000" stroke-width="1" fill="none"></path></g><g transform="translate(1491.9916667938232 47.5) rotate(0 18.008333206176758 12.5)"><text x="18.008333206176758" y="0" font-family="Virgil, Segoe UI Emoji" font-size="20px" fill="#000000" text-anchor="middle" style="white-space: pre;" direction="ltr" dominant-baseline="text-before-edge">Web</text></g><g stroke-linecap="round" transform="translate(1750 150) rotate(0 160 50)"><path d="M25 0 M25 0 C110.09 -0.54, 195.52 0.37, 295 0 M25 0 C119.1 -1.08, 214.47 0.05, 295 0 M295 0 C313.34 0.56, 319.45 7.47, 320 25 M295 0 C311.3 -0.61, 321.65 10.35, 320 25 M320 25 C320.78 38.62, 318.31 52.63, 320 75 M320 25 C320.51 43.37, 320.29 64.29, 320 75 M320 75 C320.83 92.95, 313.53 98.38, 295 100 M320 75 C318.75 89.97, 313.15 101.71, 295 100 M295 100 C231.82 102.93, 170.05 102.78, 25 100 M295 100 C236.8 99.72, 180.72 99.29, 25 100 M25 100 C6.5 101.59, 0.6 91.37, 0 75 M25 100 C6.75 100.91, 0.08 92.63, 0 75 M0 75 C0.36 59.27, -1.16 45.52, 0 25 M0 75 C-0.28 57.4, -0.73 41.24, 0 25 M0 25 C-1.61 10.12, 9.8 -0.11, 25 0 M0 25 C-1.01 9.53, 8.37 0.2, 25 0" stroke="#000000" stroke-width="1" fill="none"></path></g><g transform="translate(1852.0166664123535 187.5) rotate(0 57.983333587646484 12.5)"><text x="57.983333587646484" y="0" font-family="Virgil, Segoe UI Emoji" font-size="20px" fill="#000000" text-anchor="middle" style="white-space: pre;" direction="ltr" dominant-baseline="text-before-edge">API handler</text></g><g stroke-linecap="round" transform="translate(1750 10) rotate(0 160 50)"><path d="M25 0 M25 0 C110.09 -0.54, 195.52 0.37, 295 0 M25 0 C119.1 -1.08, 214.47 0.05, 295 0 M295 0 C313.34 0.56, 319.45 7.47, 320 25 M295 0 C311.3 -0.61, 321.65 10.35, 320 25 M320 25 C320.78 38.62, 318.31 52.63, 320 75 M320 25 C320.51 43.37, 320.29 64.29, 320 75 M320 75 C320.83 92.95, 313.53 98.38, 295 100 M320 75 C318.75 89.97, 313.15 101.71, 295 100 M295 100 C231.82 102.93, 170.05 102.78, 25 100 M295 100 C236.8 99.72, 180.72 99.29, 25 100 M25 100 C6.5 101.59, 0.6 91.37, 0 75 M25 100 C6.75 100.91, 0.08 92.63, 0 75 M0 75 C0.36 59.27, -1.16 45.52, 0 25 M0 75 C-0.28 57.4, -0.73 41.24, 0 25 M0 25 C-1.61 10.12, 9.8 -0.11, 25 0 M0 25 C-1.01 9.53, 8.37 0.2, 25 0" stroke="#000000" stroke-width="1" fill="none"></path></g><g transform="translate(1843.5416641235352 47.5) rotate(0 66.45833587646484 12.5)"><text x="66.45833587646484" y="0" font-family="Virgil, Segoe UI Emoji" font-size="20px" fill="#000000" text-anchor="middle" style="white-space: pre;" direction="ltr" dominant-baseline="text-before-edge">Static server</text></g><g stroke-linecap="round"><g transform="translate(1749 50.77763901868582) rotate(0 -40.142972156778114 -0.4977993391162272)"><path d="M-0.17 0.81 C-13.42 0.61, -66.84 -1.5, -80.12 -1.81 M-1.71 0.19 C-14.56 0.15, -65.39 -0.81, -77.99 -0.81" stroke="#000000" stroke-width="1" fill="none"></path></g><g transform="translate(1749 50.77763901868582) rotate(0 -40.142972156778114 -0.4977993391162272)"><path d="M-48.34 -12.63 C-58.52 -9.68, -64.26 -5.25, -77.72 -0.37 M-49.48 -9.8 C-60.73 -6.51, -69.63 -3.74, -78.8 0.16" stroke="#000000" stroke-width="1" fill="none"></path></g><g transform="translate(1749 50.77763901868582) rotate(0 -40.142972156778114 -0.4977993391162272)"><path d="M-48.56 7.89 C-58.58 5.73, -64.27 5.04, -77.72 -0.37 M-49.7 10.72 C-60.87 6.46, -69.68 1.67, -78.8 0.16" stroke="#000000" stroke-width="1" fill="none"></path></g></g><mask></mask><g stroke-linecap="round"><g transform="translate(1749 166.7045454545455) rotate(0 -38.870926679717286 -58.59744532064286)"><path d="M0.44 0.25 C-12.67 -19.32, -64.7 -98.13, -77.84 -117.45 M-0.79 -0.66 C-14.03 -20.09, -65.17 -96.84, -78.18 -116.3" stroke="#000000" stroke-width="1" fill="none"></path></g><g transform="translate(1749 166.7045454545455) rotate(0 -38.870926679717286 -58.59744532064286)"><path d="M-53.57 -96.62 C-64.13 -104.02, -70 -112.34, -79.79 -114.36 M-54.93 -98.01 C-63.14 -105.04, -72.68 -112.54, -78.85 -117.27" stroke="#000000" stroke-width="1" fill="none"></path></g><g transform="translate(1749 166.7045454545455) rotate(0 -38.870926679717286 -58.59744532064286)"><path d="M-70.64 -85.23 C-74.92 -96.88, -74.5 -109.4, -79.79 -114.36 M-71.99 -86.61 C-73.64 -98.12, -76.63 -109.99, -78.85 -117.27" stroke="#000000" stroke-width="1" fill="none"></path></g></g><mask></mask></svg>