<svg width="256" height="256" viewBox="0 0 256 256" fill="none" xmlns="http://www.w3.org/2000/svg">
<!-- <rect width="256" height="256" fill="#2A3931"/> -->
<path d="M79.5 31.5H0C0 33.3333 0.1 37.9 0.5 41.5C18.9 49.5 23.8333 58.8333 24 62.5L74.5 205H84.5L99 168C91 145 72.8 93 64 69C51.6 47.8 69.1667 43.1667 79.5 43.5V31.5Z" fill="#377771"/>
<path d="M176.5 31H256C256 32.8333 255.9 37.4 255.5 41C237.1 49 232.167 58.3333 232 62L181.5 204.5H171.5L157 167.5C165 144.5 183.2 92.5 192 68.5C204.4 47.3 186.833 42.6667 176.5 43V31Z" fill="#377771"/>
<path d="M127.5 50.5L96 131.5L104 156.5L127.5 97.5V50.5Z" fill="#A8DAC0"/>
<path d="M127 50L158.5 131L150.5 156L127 97V50Z" fill="#A8DAC0"/>
</svg>
